HIERARCHY
ROOT Hips
{
	OFFSET 0.000000 88.474243 0.000000
	CHANNELS 6 Xposition Yposition Zposition Zrotation Yrotation Xrotation 
	JOINT Hips_Spine
	{
		OFFSET 0.000000 0.000000 0.000000
		CHANNELS 3 Zrotation Yrotation Xrotation
		JOINT Spine
		{
			OFFSET 0.005100 8.711998 -0.691000
			CHANNELS 3 Zrotation Yrotation Xrotation
			JOINT Spine1
			{
				OFFSET -0.009200 8.660301 -1.275000
				CHANNELS 3 Zrotation Yrotation Xrotation
				JOINT Spine2
				{
					OFFSET 0.006300 9.852501 -1.857000
					CHANNELS 3 Zrotation Yrotation Xrotation
					JOINT Spine2_Neck
					{
						OFFSET 0.000000 0.000000 0.000000
						CHANNELS 3 Zrotation Yrotation Xrotation
						JOINT Neck
						{
							OFFSET 0.016300 11.420799 -0.263300
							CHANNELS 3 Zrotation Yrotation Xrotation
							End Site #name: Head
							{
								OFFSET -0.019200 9.262405 2.362500
							}
						}
					}
					JOINT Spine2_LeftShoulder
					{
						OFFSET 0.000000 0.000000 0.000000
						CHANNELS 3 Zrotation Yrotation Xrotation
						JOINT LeftShoulder
						{
							OFFSET 5.616900 6.732201 -0.345700
							CHANNELS 3 Zrotation Yrotation Xrotation
							JOINT LeftArm
							{
								OFFSET 10.664888 -0.183372 -2.440700
								CHANNELS 3 Zrotation Yrotation Xrotation
								JOINT LeftForeArm
								{
									OFFSET 27.459126 0.000000 0.000000
									CHANNELS 3 Zrotation Yrotation Xrotation
									End Site #name: LeftHand
									{
										OFFSET 21.306858 0.000000 0.000000
									}
								}
							}
						}
					}
					JOINT Spine2_RightShoulder
					{
						OFFSET 0.000000 0.000000 0.000000
						CHANNELS 3 Zrotation Yrotation Xrotation
						JOINT RightShoulder
						{
							OFFSET -5.580300 6.737503 -0.344400
							CHANNELS 3 Zrotation Yrotation Xrotation
							JOINT RightArm
							{
								OFFSET -10.679335 -0.188484 -2.383900
								CHANNELS 3 Zrotation Yrotation Xrotation
								JOINT RightForeArm
								{
									OFFSET -27.503529 0.000000 0.000000
									CHANNELS 3 Zrotation Yrotation Xrotation
									End Site #name: RightHand
									{
										OFFSET -21.306808 0.000000 0.000000
									}
								}
							}
						}
					}
				}
			}
		}
	}
	JOINT Hips_LeftUpLeg
	{
		OFFSET 0.000000 0.000000 0.000000
		CHANNELS 3 Zrotation Yrotation Xrotation
		JOINT LeftUpLeg
		{
			OFFSET 6.857700 -6.739601 0.312100
			CHANNELS 3 Zrotation Yrotation Xrotation
			JOINT LeftLeg
			{
				OFFSET -0.367590 -34.731552 -4.572400
				CHANNELS 3 Zrotation Yrotation Xrotation
				End Site #name: LeftFoot
				{
					OFFSET 0.367590 -34.656704 -6.067400
				}
			}
		}
	}
	JOINT Hips_RightUpLeg
	{
		OFFSET 0.000000 0.000000 0.000000
		CHANNELS 3 Zrotation Yrotation Xrotation
		JOINT RightUpLeg
		{
			OFFSET -6.876100 -6.733299 0.301000
			CHANNELS 3 Zrotation Yrotation Xrotation
			JOINT RightLeg
			{
				OFFSET 0.347353 -34.795158 -4.515900
				CHANNELS 3 Zrotation Yrotation Xrotation
				End Site #name: RightFoot
				{
					OFFSET -0.347353 -34.589367 -6.070300
				}
			}
		}
	}
}
MOTION
Frames: 9
Frame Time: 0.041667
0.545022 0.764705 -1.013063 2.044987 -3.598865 -6.999925 -0.000000 0.000000 -0.000000 -2.996357 -0.357242 -3.171500 2.200173 -1.937563 -6.131125 0.000000 0.000000 0.000000 2.682994 -1.402766 -6.034445 3.362305 -4.348548 -4.137854 1.196017 -1.688705 -6.810047 -18.095584 -0.409525 9.712489 -53.911754 13.079204 -4.273225 -0.647351 -21.672479 8.011144 1.626070 -1.738495 -3.320118 3.490713 5.864639 1.440957 67.088161 -1.640238 -8.410663 0.314178 46.919315 -0.733782 -0.000000 -0.000000 -0.000000 -10.095676 25.961963 -1.345171 -2.018493 1.283023 18.524226 0.000000 0.000000 0.000000 -7.148408 7.210688 -19.022617 5.173180 -3.617944 15.460504 
0.324083 0.769186 -1.084900 1.764801 -4.188610 -7.131976 -0.000000 0.000000 -0.000000 -2.019679 -0.428429 -3.930389 2.377355 -1.956699 -6.052367 0.000000 0.000000 0.000000 2.840305 -1.353112 -5.989654 3.297668 -4.411164 -3.880121 1.379036 -1.640038 -6.692889 -17.541153 -0.473826 9.819575 -54.908302 14.037300 -4.944969 -0.664520 -22.375600 7.870571 1.788947 -1.698160 -3.321087 3.590615 6.005644 1.483623 66.875335 -1.729281 -8.221618 0.324416 46.916761 -0.730797 -0.000000 -0.000000 -0.000000 -9.419634 26.209651 -1.019537 -2.127161 1.044053 18.784508 0.000000 0.000000 0.000000 -6.373280 7.567944 -19.263088 5.256174 -4.094121 15.469809 
0.124239 0.770873 -1.156598 1.476234 -4.309496 -7.229767 -0.000000 0.000000 -0.000000 -1.052977 -0.472814 -4.673548 2.561389 -1.967380 -5.966580 0.000000 0.000000 0.000000 3.005798 -1.303106 -5.939325 3.270235 -4.506084 -3.561719 1.576333 -1.592756 -6.562091 -16.990567 -0.562664 9.896574 -55.884541 14.924365 -5.584044 -0.686845 -22.978557 7.729196 1.969400 -1.660166 -3.318802 3.715030 6.127775 1.514509 66.700446 -1.785103 -7.994792 0.331139 46.951431 -0.731713 -0.000000 -0.000000 -0.000000 -8.794912 26.385844 -0.558975 -2.266400 0.769074 18.694783 0.000000 0.000000 0.000000 -5.576384 7.932410 -19.452023 5.445117 -4.373898 15.475436 
-0.044273 0.771241 -1.225742 1.174644 -4.710329 -7.236349 -0.000000 -0.000000 -0.000000 -0.126749 -0.483208 -5.298569 2.752661 -1.970339 -5.856893 0.000000 0.000000 0.000000 3.145415 -1.249534 -5.864434 3.240314 -4.619616 -3.191309 1.773963 -1.539513 -6.406765 -16.409516 -0.696689 9.934451 -56.800148 15.646506 -6.230868 -0.713602 -23.562521 7.575160 2.147185 -1.620405 -3.301672 3.884485 6.260289 1.543000 66.486739 -1.816186 -7.788970 0.337594 47.071353 -0.731582 -0.000000 -0.000000 -0.000000 -8.159333 26.604745 0.028300 -2.417105 0.414017 18.417952 0.000000 -0.000000 0.000000 -4.775472 8.345222 -19.648509 5.656632 -4.626537 15.459278 
-0.173533 0.770178 -1.292985 0.933849 -5.510826 -7.204565 -0.000000 -0.000000 -0.000000 0.580328 -0.515501 -5.954151 2.939335 -1.971612 -5.722817 0.000000 0.000000 0.000000 3.276076 -1.190452 -5.760247 3.176826 -4.762077 -2.725341 1.970199 -1.482249 -6.224162 -15.813094 -0.850926 9.961955 -57.504090 16.044563 -6.927996 -0.753997 -24.157493 7.421025 2.324287 -1.577370 -3.271270 4.115773 6.417751 1.576866 66.216792 -1.980748 -7.737304 0.349300 47.405211 -0.732838 -0.000000 -0.000000 -0.000000 -7.538535 26.816287 0.670587 -2.553636 0.111331 18.127056 0.000000 -0.000000 0.000000 -4.033031 8.806890 -19.870274 5.855084 -4.858233 15.478175 
-0.256253 0.769138 -1.360588 0.789492 -6.935346 -7.170759 -0.000000 -0.000000 0.000000 1.179569 -0.542193 -6.536244 3.117485 -1.973168 -5.569599 0.000000 0.000000 0.000000 3.395528 -1.127141 -5.630425 3.068918 -4.938725 -2.124086 2.160661 -1.425453 -6.023703 -15.228211 -1.019800 9.961829 -58.124078 16.321489 -7.517511 -0.799897 -24.725185 7.262647 2.483611 -1.534290 -3.222124 4.445578 6.614026 1.625356 65.879889 -2.239314 -7.740436 0.366632 47.934012 -0.725120 -0.000000 -0.000000 -0.000000 -6.968728 26.968338 1.349390 -2.678136 -0.082538 17.771597 0.000000 -0.000000 0.000000 -3.405597 9.320418 -20.094389 6.031087 -5.102912 15.585812 
-0.286867 0.769372 -1.429672 0.764621 -8.906290 -7.128696 -0.000000 -0.000000 0.000000 1.733357 -0.575188 -6.946924 3.277573 -1.981025 -5.407794 0.000000 0.000000 0.000000 3.499682 -1.068855 -5.491174 2.908027 -5.074038 -1.430293 2.337954 -1.377657 -5.822115 -14.682668 -1.178332 9.944201 -58.673886 16.501211 -8.020274 -0.845472 -25.239288 7.121666 2.628565 -1.493265 -3.163820 4.773557 6.813690 1.674395 65.545679 -2.506195 -7.740724 0.389090 48.533666 -0.714691 -0.000000 -0.000000 -0.000000 -6.491878 27.040055 2.046208 -2.839555 -0.197512 17.369445 0.000000 -0.000000 0.000000 -2.918573 9.856940 -20.393824 6.187270 -5.270162 15.871914 
-0.261061 0.769600 -1.501106 0.845908 -11.400523 -7.092486 -0.000000 -0.000000 0.000000 2.070917 -0.684221 -7.040225 3.411048 -1.995551 -5.240612 0.000000 0.000000 0.000000 3.586756 -1.021299 -5.347131 2.706352 -5.109312 -0.680727 2.494997 -1.343728 -5.628874 -14.198111 -1.351058 9.891385 -59.176493 16.590406 -8.418257 -0.889099 -25.679938 6.991699 2.752502 -1.461306 -3.098039 5.055814 6.993121 1.714365 65.246049 -2.737177 -7.714636 0.414893 49.118517 -0.702245 -0.000000 -0.000000 -0.000000 -6.187405 27.066264 2.730503 -3.036862 -0.301531 16.973235 0.000000 -0.000000 0.000000 -2.560403 10.378123 -20.836825 6.344898 -5.320573 16.435432 
-0.184349 0.770142 -1.573699 1.032896 -14.372896 -7.096858 -0.000000 -0.000000 0.000000 2.345091 -0.816118 -7.115498 3.517456 -2.013258 -5.072463 0.000000 0.000000 0.000000 3.657313 -0.986405 -5.190046 2.490051 -5.066313 0.033983 2.632247 -1.325183 -5.453938 -13.806217 -1.536937 9.806724 -59.603081 16.597071 -8.717243 -0.939724 -26.020637 6.884636 2.858710 -1.443937 -3.030613 5.267492 7.146883 1.746951 65.025419 -2.916063 -7.657533 0.442718 49.614118 -0.686490 -0.000000 -0.000000 -0.000000 -6.082456 26.947338 3.355427 -3.217999 -0.414578 16.595837 0.000000 -0.000000 0.000000 -2.312423 10.880995 -21.408805 6.485627 -5.268317 17.261695 
